HIERARCHY
ROOT hip
{
  OFFSET 0 0 0
  CHANNELS 6 Xposition Yposition Zposition Zrotation Yrotation Xrotation
  JOINT abdomen
  {
    OFFSET 0 20.6881 -0.73152
    CHANNELS 3 Zrotation Xrotation Yrotation
    JOINT chest
    {
      OFFSET 0 11.7043 -0.48768
      CHANNELS 3 Zrotation Xrotation Yrotation
      JOINT neck
      {
        OFFSET 0 22.1894 -2.19456
        CHANNELS 3 Zrotation Xrotation Yrotation
        JOINT head
        {
          OFFSET -0.24384 7.07133 1.2192
          CHANNELS 3 Zrotation Xrotation Yrotation
          JOINT leftEye
          {
            OFFSET 4.14528 8.04674 8.04672
            CHANNELS 3 Zrotation Xrotation Yrotation
            End Site
            {
              OFFSET 1 0 0
            }
          }
          JOINT rightEye
          {
            OFFSET -3.6576 8.04674 8.04672
            CHANNELS 3 Zrotation Xrotation Yrotation
            End Site
            {
              OFFSET 1 0 0
            }
          }
        }
      }
      JOINT rCollar
      {
        OFFSET -2.68224 19.2634 -4.8768
        CHANNELS 3 Zrotation Xrotation Yrotation
        JOINT rShldr
        {
          OFFSET -8.77824 -1.95073 1.46304
          CHANNELS 3 Zrotation Xrotation Yrotation
          JOINT rForeArm
          {
            OFFSET -28.1742 -1.7115 0.48768
            CHANNELS 3 Zrotation Xrotation Yrotation
            JOINT rHand
            {
              OFFSET -22.5879 0.773209 7.07136
              CHANNELS 3 Zrotation Xrotation Yrotation
              JOINT rThumb1
              {
                OFFSET -1.2192 -0.487915 3.41376
                CHANNELS 3 Zrotation Xrotation Yrotation
                JOINT rThumb2
                {
                  OFFSET -3.37035 -0.52449 3.41376
                  CHANNELS 3 Zrotation Xrotation Yrotation
                  End Site
                  {
                    OFFSET -1.78271 -1.18214 1.43049
                  }
                }
              }
              JOINT rIndex1
              {
                OFFSET -7.75947 0.938293 5.60832
                CHANNELS 3 Zrotation Xrotation Yrotation
                JOINT rIndex2
                {
                  OFFSET -2.54057 -0.884171 1.56538
                  CHANNELS 3 Zrotation Xrotation Yrotation
                  End Site
                  {
                    OFFSET -1.62519 -0.234802 1.16502
                  }
                }
              }
              JOINT rMid1
              {
                OFFSET -8.24714 1.18213 3.41376
                CHANNELS 3 Zrotation Xrotation Yrotation
                JOINT rMid2
                {
                  OFFSET -3.10165 -0.590103 1.0647
                  CHANNELS 3 Zrotation Xrotation Yrotation
                  End Site
                  {
                    OFFSET -2.48547 -0.328903 0.83742
                  }
                }
              }
              JOINT rRing1
              {
                OFFSET -8.82822 0.546677 1.51678
                CHANNELS 3 Zrotation Xrotation Yrotation
                JOINT rRing2
                {
                  OFFSET -2.60934 -0.819778 -0.0198488
                  CHANNELS 3 Zrotation Xrotation Yrotation
                  End Site
                  {
                    OFFSET -2.33842 -0.294052 0.168128
                  }
                }
              }
              JOINT rPinky1
              {
                OFFSET -8.27202 -0.0477905 -0.4584
                CHANNELS 3 Zrotation Xrotation Yrotation
                JOINT rPinky2
                {
                  OFFSET -1.82734 -0.647385 -0.700984
                  CHANNELS 3 Zrotation Xrotation Yrotation
                  End Site
                  {
                    OFFSET -1.69225 -0.51767 -0.607171
                  }
                }
              }
            }
          }
        }
      }
      JOINT lCollar
      {
        OFFSET 2.68224 19.2634 -4.8768
        CHANNELS 3 Zrotation Xrotation Yrotation
        JOINT lShldr
        {
          OFFSET 8.77824 -1.95073 1.46304
          CHANNELS 3 Zrotation Xrotation Yrotation
          JOINT lForeArm
          {
            OFFSET 28.1742 -1.7115 0.48768
            CHANNELS 3 Zrotation Xrotation Yrotation
            JOINT lHand
            {
              OFFSET 22.5879 0.773209 7.07136
              CHANNELS 3 Zrotation Xrotation Yrotation
              JOINT lThumb1
              {
                OFFSET 1.2192 -0.487915 3.41376
                CHANNELS 3 Zrotation Xrotation Yrotation
                JOINT lThumb2
                {
                  OFFSET 3.37035 -0.52449 3.41376
                  CHANNELS 3 Zrotation Xrotation Yrotation
                  End Site
                  {
                    OFFSET 1.78271 -1.18214 1.43049
                  }
                }
              }
              JOINT lIndex1
              {
                OFFSET 7.75947 0.938293 5.60832
                CHANNELS 3 Zrotation Xrotation Yrotation
                JOINT lIndex2
                {
                  OFFSET 2.54057 -0.884171 1.56538
                  CHANNELS 3 Zrotation Xrotation Yrotation
                  End Site
                  {
                    OFFSET 1.62519 -0.234802 1.16502
                  }
                }
              }
              JOINT lMid1
              {
                OFFSET 8.24714 1.18213 3.41376
                CHANNELS 3 Zrotation Xrotation Yrotation
                JOINT lMid2
                {
                  OFFSET 3.10165 -0.590103 1.0647
                  CHANNELS 3 Zrotation Xrotation Yrotation
                  End Site
                  {
                    OFFSET 2.48547 -0.328903 0.83742
                  }
                }
              }
              JOINT lRing1
              {
                OFFSET 8.82822 0.546677 1.51678
                CHANNELS 3 Zrotation Xrotation Yrotation
                JOINT lRing2
                {
                  OFFSET 2.60934 -0.819778 -0.0198488
                  CHANNELS 3 Zrotation Xrotation Yrotation
                  End Site
                  {
                    OFFSET 2.33842 -0.294052 0.168128
                  }
                }
              }
              JOINT lPinky1
              {
                OFFSET 8.27202 -0.0477905 -0.4584
                CHANNELS 3 Zrotation Xrotation Yrotation
                JOINT lPinky2
                {
                  OFFSET 1.82734 -0.647385 -0.700984
                  CHANNELS 3 Zrotation Xrotation Yrotation
                  End Site
                  {
                    OFFSET 1.69225 -0.51767 -0.607171
                  }
                }
              }
            }
          }
        }
      }
    }
  }
  JOINT rButtock
  {
    OFFSET -8.77824 4.35084 1.2192
    CHANNELS 3 Zrotation Xrotation Yrotation
    JOINT rThigh
    {
      OFFSET 0 -1.70687 -2.19456
      CHANNELS 3 Zrotation Xrotation Yrotation
      JOINT rShin
      {
        OFFSET 0 -36.8199 0.73152
        CHANNELS 3 Zrotation Xrotation Yrotation
        JOINT rFoot
        {
          OFFSET 0.73152 -45.1104 -5.12064
          CHANNELS 3 Zrotation Xrotation Yrotation
          End Site
          {
            OFFSET -1.1221 -3.69964 12.103
          }
        }
      }
    }
  }
  JOINT lButtock
  {
    OFFSET 8.77824 4.35084 1.2192
    CHANNELS 3 Zrotation Xrotation Yrotation
    JOINT lThigh
    {
      OFFSET 0 -1.70687 -2.19456
      CHANNELS 3 Zrotation Xrotation Yrotation
      JOINT lShin
      {
        OFFSET 0 -36.8199 0.73152
        CHANNELS 3 Zrotation Xrotation Yrotation
        JOINT lFoot
        {
          OFFSET -0.73152 -45.1104 -5.12064
          CHANNELS 3 Zrotation Xrotation Yrotation
          End Site
          {
            OFFSET 1.1221 -3.69964 12.103
          }
        }
      }
    }
  }
}
MOTION
Frames:	7
Frame Time:	0.00833333
-2.05343 96.9951 -106.97 1.6162 0.7388 10.0918 -1.3093 12.1578 1.85578 2.26229 -5.70995 0.494604 -2.1723 3.48855 0.294145 0.0315809 -17.3421 1.0698 -0.0 0.0 0.0 -0.0 0.0 0.0 -4.05069e-15 -1.08142e-13 1.75427e-14 45.9443 30.7486 22.0384 -28.1306 -31.4573 69.5809 -0.0140086 -3.37717 -0.475186 1.4138e-10 7.25778e-09 -3.71616e-10 2.45352e-10 1.25524e-08 -6.42237e-10 1.41384e-10 7.25775e-09 -3.71626e-10 7.73091 5.47488 0.417314 1.41377e-10 7.25776e-09 -3.71613e-10 2.90554 0.965183 0.102902 1.41386e-10 7.25775e-09 -3.71613e-10 10.2786 0.731801 0.0259123 1.41374e-10 7.25776e-09 -3.716e-10 2.22167 -0.733487 -0.20892 -4.09978e-15 -1.08137e-13 1.74434e-14 -62.6807 31.7877 4.85529 26.1363 -46.0044 -95.5558 0.0425052 -5.87397 0.828466 -4.01555e-10 5.80253e-09 9.20961e-11 -6.97459e-10 1.00992e-08 1.58929e-10 -4.01556e-10 5.80253e-09 9.21152e-11 -7.73091 5.47488 -0.417314 -4.01555e-10 5.80251e-09 9.2093e-11 -2.90554 0.965183 -0.102902 -4.01561e-10 5.80253e-09 9.20977e-11 -10.2786 0.731801 -0.0259123 -4.01555e-10 5.80253e-09 9.20898e-11 -2.22167 -0.733487 0.20892 -2.03217e-16 0.0 -3.88251e-19 -6.2474 -13.1462 -1.40891 -0.654863 51.0422 0.969438 0.790885 14.0962 -7.32389 2.03217e-16 0.0 3.88251e-19 1.77676 -8.07035 0.632817 0.350054 44.0241 -1.10694 5.75245 17.2858 -23.2963
-2.18585 97.9514 -103.595 1.4833 0.7655 9.848 -1.14614 13.7948 1.79441 2.34051 -5.88827 0.494575 -2.04632 3.75061 0.336697 -0.155456 -17.7161 1.08832 -0.0 0.0 0.0 -0.0 0.0 0.0 -1.39701e-14 -7.73543e-14 5.67585e-15 49.2788 30.0808 22.4254 -27.6847 -28.9671 64.3201 -0.0213964 -4.41497 -0.622008 1.64516e-11 6.45381e-09 5.27317e-12 2.57607e-11 1.11734e-08 8.78078e-12 1.64552e-11 6.45378e-09 5.2639e-12 7.73091 5.47488 0.417314 1.6449e-11 6.45379e-09 5.27509e-12 2.90554 0.965183 0.102902 1.64591e-11 6.45379e-09 5.27572e-12 10.2786 0.731801 0.0259123 1.64466e-11 6.45379e-09 5.28862e-12 2.22167 -0.733487 -0.20892 -1.40579e-14 -7.7351e-14 5.52753e-15 -67.4372 31.0897 6.27278 27.1395 -44.2608 -91.1964 0.0565881 -7.08901 1.00093 -3.32351e-10 5.23142e-09 -4.47074e-10 -5.72071e-10 9.12495e-09 -7.72872e-10 -3.32351e-10 5.23143e-09 -4.47055e-10 -7.73091 5.47488 -0.417314 -3.32351e-10 5.23141e-09 -4.47075e-10 -2.90554 0.965183 -0.102902 -3.32357e-10 5.23142e-09 -4.47072e-10 -10.2786 0.731801 -0.0259123 -3.32351e-10 5.23142e-09 -4.4708e-10 -2.22167 -0.733487 0.20892 -2.03217e-16 0.0 -3.88251e-19 -6.32952 -15.1612 -2.12591 -0.658567 51.143 0.963529 0.752234 13.1078 -8.06632 2.03217e-16 0.0 3.88251e-19 1.88226 -9.88818 1.7528 0.367207 44.4496 -1.08495 4.70273 15.5784 -21.7815
-2.18237 98.5648 -100.298 2.0502 0.9355 9.9473 -1.11928 15.2052 1.52768 2.52031 -6.0821 0.444582 -1.87867 4.12169 0.411019 -0.364227 -18.2711 1.15342 -0.0 0.0 0.0 -0.0 0.0 0.0 -2.7542e-14 -1.92831e-14 -1.42535e-14 52.416 29.2074 22.9811 -26.8392 -25.8045 58.3674 -0.0453939 -6.03827 -0.853223 -2.10834e-10 4.44112e-09 6.17002e-10 -3.72846e-10 7.70908e-09 1.06542e-09 -2.10832e-10 4.4411e-09 6.16994e-10 7.73091 5.47488 0.417314 -2.10837e-10 4.44111e-09 6.17002e-10 2.90554 0.965183 0.102902 -2.10825e-10 4.44111e-09 6.17004e-10 10.2786 0.731801 0.0259123 -2.10839e-10 4.44111e-09 6.17016e-10 2.22167 -0.733487 -0.20892 -2.76847e-14 -1.92824e-14 -1.44958e-14 -71.7969 30.1252 7.26928 27.9326 -41.8625 -86.5058 0.0921524 -8.88313 1.25846 -1.59227e-10 3.67435e-09 -1.26837e-09 -2.6357e-10 6.44444e-09 -2.19216e-09 -1.59224e-10 3.67436e-09 -1.26836e-09 -7.73091 5.47488 -0.417314 -1.59225e-10 3.67435e-09 -1.26837e-09 -2.90554 0.965183 -0.102902 -1.59231e-10 3.67436e-09 -1.26837e-09 -10.2786 0.731801 -0.0259123 -1.59225e-10 3.67436e-09 -1.26838e-09 -2.22167 -0.733487 0.20892 -2.03217e-16 0.0 -3.88251e-19 -6.53279 -17.4278 -2.87873 -0.639626 50.6139 0.939566 0.636708 11.9374 -8.55055 2.03217e-16 0.0 3.88251e-19 1.97726 -12.0232 2.77845 0.368862 44.1544 -1.03436 3.65495 13.8164 -19.7768
-2.45525 98.9216 -96.8616 1.358 1.1946 9.4526 -1.12914 16.5421 1.25177 2.69955 -6.30118 0.394444 -1.73302 4.47182 0.462993 -0.500958 -18.8602 1.19164 -0.0 0.0 0.0 -0.0 0.0 0.0 -3.97573e-14 3.72973e-14 -3.28084e-14 55.4354 28.2425 23.3348 -25.4134 -22.0674 52.8896 -0.084014 -8.04746 -1.1404 -4.14085e-10 2.13639e-09 1.17906e-09 -7.29142e-10 3.73754e-09 2.03648e-09 -4.14083e-10 2.13639e-09 1.17905e-09 7.73091 5.47488 0.417314 -4.14088e-10 2.1364e-09 1.17905e-09 2.90554 0.965183 0.102902 -4.14074e-10 2.1364e-09 1.17906e-09 10.2786 0.731801 0.0259123 -4.1409e-10 2.13639e-09 1.17907e-09 2.22167 -0.733487 -0.20892 -3.99533e-14 3.72954e-14 -3.31477e-14 -75.6724 29.2474 8.07929 28.3263 -39.1762 -82.1028 0.147807 -10.9557 1.55936 4.06755e-11 1.90689e-09 -1.97547e-09 8.98352e-11 3.39364e-09 -3.41393e-09 4.06799e-11 1.9069e-09 -1.97546e-09 -7.73091 5.47488 -0.417314 4.06781e-11 1.90689e-09 -1.97547e-09 -2.90554 0.965183 -0.102902 4.06717e-11 1.9069e-09 -1.97547e-09 -10.2786 0.731801 -0.0259123 4.06794e-11 1.9069e-09 -1.97547e-09 -2.22167 -0.733487 0.20892 -2.03217e-16 0.0 -3.88251e-19 -6.82311 -19.7482 -3.55348 -0.605737 49.6276 0.903445 0.476553 10.7243 -8.78105 2.03217e-16 0.0 3.88251e-19 2.07648 -14.2177 3.65198 0.356298 43.2682 -0.967828 2.76955 12.138 -17.6985
-2.49181 98.9794 -93.526 1.7831 1.1734 9.3497 -1.09409 17.9588 1.16806 2.77683 -6.55527 0.394058 -1.6714 4.67106 0.438356 -0.475249 -19.3365 1.12833 -0.0 0.0 0.0 -0.0 0.0 0.0 -4.5607e-14 6.36121e-14 -4.05521e-14 58.3868 27.2953 23.1284 -23.7235 -18.5896 48.7465 -0.130434 -10.2429 -1.45524 -4.66907e-10 4.56313e-10 1.40692e-09 -8.21804e-10 8.36833e-10 2.43074e-09 -4.66905e-10 4.56323e-10 1.40691e-09 7.73091 5.47488 0.417314 -4.6691e-10 4.56329e-10 1.40692e-09 2.90554 0.965183 0.102902 -4.66895e-10 4.56322e-10 1.40692e-09 10.2786 0.731801 0.0259123 -4.66912e-10 4.56316e-10 1.40693e-09 2.22167 -0.733487 -0.20892 -4.5837e-14 6.36088e-14 -4.09496e-14 -78.9862 28.8004 8.93896 28.414 -36.6967 -78.1816 0.212076 -13.0063 1.8603 1.90212e-10 7.04583e-10 -2.17202e-09 3.49935e-10 1.30848e-09 -3.75317e-09 1.90215e-10 7.046e-10 -2.17201e-09 -7.73091 5.47488 -0.417314 1.90215e-10 7.04594e-10 -2.17202e-09 -2.90554 0.965183 -0.102902 1.90208e-10 7.04593e-10 -2.17202e-09 -10.2786 0.731801 -0.0259123 1.90217e-10 7.04593e-10 -2.17203e-09 -2.22167 -0.733487 0.20892 -2.03217e-16 0.0 -3.88251e-19 -7.13619 -21.9273 -4.02528 -0.564523 48.3564 0.861002 0.308553 9.60614 -8.76101 2.03217e-16 0.0 3.88251e-19 2.16702 -16.2164 4.30736 0.330788 41.9204 -0.89816 2.13078 10.721 -15.9402
-2.59593 98.7774 -90.1172 1.7122 1.1437 9.0558 -0.987415 19.6558 1.38336 2.69446 -6.8719 0.470728 -1.725 4.67823 0.305409 -0.215761 -19.6635 0.919517 -0.0 0.0 0.0 -0.0 0.0 0.0 -3.94183e-14 3.46637e-14 -2.93984e-14 61.1867 26.2445 22.3491 -22.3004 -16.1565 45.4794 -0.196553 -13.1125 -1.87035 -2.66838e-10 -4.48297e-10 1.00801e-09 -4.69993e-10 -7.39377e-10 1.74329e-09 -2.66835e-10 -4.48285e-10 1.00801e-09 7.73091 5.47488 0.417314 -2.66841e-10 -4.48281e-10 1.00801e-09 2.90554 0.965183 0.102902 -2.66825e-10 -4.48287e-10 1.00801e-09 10.2786 0.731801 0.0259123 -2.66842e-10 -4.48293e-10 1.00802e-09 2.22167 -0.733487 -0.20892 -3.96587e-14 3.46611e-14 -2.98002e-14 -81.4863 28.9108 9.67654 28.4381 -34.4654 -73.9812 0.287272 -15.2918 2.19916 3.05586e-10 3.67251e-10 -1.36447e-09 5.38103e-10 6.96626e-10 -2.35646e-09 3.05587e-10 3.67264e-10 -1.36447e-09 -7.73091 5.47488 -0.417314 3.0559e-10 3.67262e-10 -1.36447e-09 -2.90554 0.965183 -0.102902 3.05582e-10 3.67259e-10 -1.36448e-09 -10.2786 0.731801 -0.0259123 3.05592e-10 3.67259e-10 -1.36448e-09 -2.22167 -0.733487 0.20892 -2.03217e-16 0.0 -3.88251e-19 -7.37918 -23.8469 -4.17138 -0.512983 46.6391 0.811324 0.110552 8.38371 -8.31694 2.03217e-16 0.0 3.88251e-19 2.20135 -17.8399 4.7504 0.288487 39.8843 -0.824303 1.70418 9.6501 -14.5047
-2.74608 98.336 -86.6671 1.4508 1.171 8.7375 -0.882221 21.4971 1.78212 2.5181 -7.23752 0.593351 -1.85619 4.56477 0.0988573 0.211081 -19.9183 0.61215 -0.0 0.0 0.0 -0.0 0.0 0.0 -2.53083e-14 -2.84265e-14 -6.23687e-15 63.7909 25.0609 21.1855 -21.219 -14.574 42.4609 -0.319927 -16.5803 -2.38906 9.57923e-11 -1.03512e-09 2.06314e-10 1.67646e-10 -1.77701e-09 3.60751e-10 9.57976e-11 -1.03512e-09 2.06307e-10 7.73091 5.47488 0.417314 9.57912e-11 -1.03511e-09 2.06311e-10 2.90554 0.965183 0.102902 9.58063e-11 -1.03512e-09 2.06312e-10 10.2786 0.731801 0.0259123 9.57889e-11 -1.03512e-09 2.0632e-10 2.22167 -0.733487 -0.20892 -2.55449e-14 -2.84272e-14 -6.6127e-15 -83.3218 29.3844 10.2593 28.293 -32.0502 -69.5469 0.393209 -17.8591 2.59024 4.15685e-10 4.5026e-10 1.06501e-10 7.08643e-10 7.951e-10 1.87281e-10 4.15679e-10 4.50268e-10 1.06506e-10 -7.73091 5.47488 -0.417314 4.15688e-10 4.50268e-10 1.06503e-10 -2.90554 0.965183 -0.102902 4.15679e-10 4.50266e-10 1.065e-10 -10.2786 0.731801 -0.0259123 4.15691e-10 4.50265e-10 1.06495e-10 -2.22167 -0.733487 0.20892 -2.03217e-16 0.0 -3.88251e-19 -7.56434 -25.637 -4.07174 -0.452999 44.4526 0.756022 -0.0855563 7.05553 -7.5126 2.03217e-16 0.0 3.88251e-19 2.15855 -19.2657 4.99841 0.236915 37.1776 -0.746586 1.40742 8.8428 -13.1924
